<?xml version="1.0" standalone="no"?>
<!DOCTYPE svg PUBLIC "-//W3C//DTD SVG 20010904//EN"
 "http://www.w3.org/TR/2001/REC-SVG-20010904/DTD/svg10.dtd">
<svg version="1.0" xmlns="http://www.w3.org/2000/svg"
 width="400.000000pt" height="400.000000pt" viewBox="0 0 400.000000 400.000000"
 preserveAspectRatio="xMidYMid meet">
<metadata>
Created by potrace 1.14, written by Peter Selinger 2001-2017
</metadata>
<g transform="translate(0.000000,400.000000) scale(0.100000,-0.100000)"
fill="#000000" stroke="none">
<path d="M1993 3165 c0 -8 4 -12 8 -9 4 2 10 -2 12 -8 4 -8 6 -9 6 -2 1 6 -5
17 -12 23 -10 8 -14 7 -14 -4z"/>
<path d="M1940 3143 c0 -5 -10 -9 -21 -10 -12 -1 -28 -11 -36 -23 -8 -12 -21
-19 -29 -16 -8 3 -14 1 -14 -5 0 -6 -6 -7 -12 -3 -7 4 -10 4 -6 -1 4 -4 2 -15
-5 -23 -9 -13 -9 -14 0 -8 9 5 11 2 7 -9 -5 -11 -10 -13 -19 -5 -9 8 -14 7
-18 -2 -4 -10 -6 -10 -6 1 -1 11 -4 11 -18 0 -14 -12 -16 -12 -8 0 6 11 4 13
-8 8 -9 -3 -18 -1 -21 6 -3 9 -5 9 -5 0 -1 -7 -8 -10 -16 -7 -8 4 -13 9 -11
13 6 9 -40 8 -49 0 -3 -4 2 -6 11 -5 11 0 19 -6 20 -17 1 -12 0 -13 -3 -2 -3
12 -11 8 -35 -15 -16 -17 -34 -28 -39 -24 -5 3 -9 1 -9 -5 0 -6 -6 -8 -14 -5
-8 3 -23 1 -33 -5 -16 -10 -15 -10 6 -8 13 1 26 -4 29 -12 3 -10 0 -12 -11 -8
-11 4 -14 2 -10 -9 3 -8 -1 -14 -11 -14 -10 0 -13 -5 -9 -17 4 -11 3 -14 -5
-9 -7 4 -12 1 -12 -8 0 -9 -6 -15 -12 -14 -7 2 -12 -3 -10 -9 1 -7 -3 -13 -9
-13 -5 0 -7 -6 -3 -12 6 -10 5 -10 -7 -1 -12 10 -20 9 -39 -4 -17 -12 -21 -13
-15 -2 6 11 5 12 -6 2 -7 -7 -21 -13 -32 -13 -10 0 -16 -4 -13 -9 3 -5 -3 -11
-13 -14 -10 -2 -26 -20 -36 -38 -39 -74 -57 -113 -59 -123 -1 -6 -5 -17 -9
-23 -5 -8 -4 -13 2 -13 13 0 10 -22 -4 -32 -6 -5 -5 -8 3 -8 6 0 12 -5 12 -11
0 -5 -4 -8 -8 -5 -5 3 -9 -1 -9 -9 0 -8 4 -12 9 -9 4 3 8 -4 8 -14 0 -11 7
-22 15 -26 9 -3 12 -12 8 -22 -3 -9 0 -20 7 -24 11 -7 11 -11 1 -24 -11 -13
-11 -16 0 -16 11 0 11 -2 -1 -10 -8 -5 -10 -10 -5 -10 12 0 14 -100 2 -100 -5
0 -5 -5 -1 -11 4 -6 8 -47 10 -90 1 -43 5 -83 9 -89 3 -5 1 -10 -5 -10 -6 0
-9 -4 -6 -8 5 -8 10 -114 7 -156 -1 -12 -6 -16 -16 -12 -8 3 -15 1 -15 -5 0
-6 -4 -7 -10 -4 -5 3 -10 1 -10 -5 0 -6 -5 -8 -12 -4 -9 5 -9 2 1 -9 7 -9 9
-17 4 -17 -9 0 -9 -40 -1 -227 1 -35 6 -63 11 -63 5 0 7 -7 3 -15 -3 -8 -1
-15 4 -15 6 0 9 -3 8 -7 -3 -12 36 -93 44 -93 5 0 8 -6 8 -13 0 -7 14 -23 30
-35 20 -15 30 -18 30 -10 0 7 9 2 19 -12 11 -13 17 -28 14 -33 -2 -4 1 -14 7
-22 10 -12 10 -15 0 -15 -10 0 -10 -3 0 -15 6 -8 9 -19 5 -25 -3 -5 -2 -10 4
-10 5 0 10 -8 10 -17 0 -10 3 -31 6 -48 9 -43 16 -364 9 -404 -4 -26 -8 -31
-15 -20 -7 12 -9 12 -9 0 0 -8 -3 -12 -6 -8 -3 3 -17 2 -30 -3 -17 -7 -24 -6
-24 2 0 6 -9 1 -19 -11 -11 -12 -22 -22 -26 -21 -12 3 -75 -55 -75 -69 0 -8
-3 -12 -6 -8 -3 3 -33 -23 -67 -59 -34 -35 -69 -64 -78 -64 -9 0 -20 -7 -23
-16 -3 -8 -10 -12 -16 -9 -6 3 -13 -1 -16 -9 -3 -9 -12 -16 -20 -16 -8 0 -14
-8 -14 -17 0 -15 -2 -16 -10 -3 -8 13 -10 12 -10 -3 0 -10 -4 -16 -9 -13 -5 4
-12 0 -14 -6 -4 -10 -6 -10 -6 0 -1 10 -5 9 -17 -3 -9 -9 -22 -14 -29 -11 -8
3 -16 -1 -19 -9 -2 -7 -13 -12 -22 -11 -10 2 -26 -4 -36 -13 -17 -15 -16 -17
19 -38 21 -12 45 -27 53 -33 65 -43 96 -61 175 -102 50 -25 113 -53 140 -63
28 -10 56 -23 63 -28 6 -5 12 -6 12 -3 0 4 10 1 23 -6 12 -6 27 -13 32 -14 6
-1 33 -10 60 -18 60 -20 215 -55 270 -62 22 -3 47 -8 55 -11 26 -9 412 -11
470 -2 30 5 71 11 90 13 19 2 67 12 105 21 39 9 77 18 86 20 38 8 151 45 235
78 116 45 198 86 307 155 l89 55 -32 13 c-18 8 -36 11 -41 8 -5 -3 -9 0 -9 5
0 6 -9 11 -19 11 -11 0 -23 5 -26 10 -3 6 -15 10 -26 10 -11 0 -18 4 -14 9 3
6 -4 8 -15 6 -11 -2 -20 0 -20 5 0 5 -6 7 -14 4 -8 -3 -20 3 -27 14 -7 11 -17
18 -23 16 -6 -2 -20 7 -30 21 -10 14 -25 25 -32 25 -8 0 -14 5 -14 11 0 5 -4
7 -10 4 -5 -3 -10 1 -10 9 0 9 -4 15 -9 14 -5 -2 -21 11 -37 29 -44 49 -54 61
-54 72 0 5 -9 13 -20 16 -11 4 -18 11 -15 16 4 5 -5 14 -19 21 -14 6 -26 18
-26 25 0 8 -4 11 -10 8 -12 -8 -13 5 -1 24 6 9 6 22 0 32 -5 10 -5 20 -1 23
11 6 9 36 -3 55 -5 10 -4 12 4 7 8 -6 12 3 11 31 -1 69 6 162 12 168 4 4 4 18
2 31 -3 14 0 24 7 24 7 0 10 3 6 6 -7 8 13 67 27 76 8 5 7 8 -1 8 -9 0 -10 7
-3 26 6 14 8 29 5 34 -3 5 -1 11 4 15 5 3 8 14 6 24 -4 20 19 36 36 25 5 -3 9
-1 9 4 0 5 10 14 23 21 22 12 54 67 49 85 -2 4 1 13 6 20 8 10 17 37 29 86 5
24 13 90 17 148 2 29 7 56 10 59 3 3 1 12 -5 20 -8 9 -8 13 -1 13 7 0 8 10 2
29 -4 16 -6 32 -2 35 3 3 -4 6 -16 6 -12 0 -22 5 -22 11 0 5 -4 8 -8 5 -4 -2
-7 14 -5 37 2 23 5 86 7 140 1 53 5 100 9 103 3 3 3 12 0 20 -3 8 -1 14 3 14
5 0 9 27 9 59 0 33 3 57 6 55 4 -2 9 5 12 16 3 12 1 18 -5 14 -6 -4 -6 1 1 13
6 11 7 23 4 27 -3 3 -1 6 6 6 8 0 11 8 8 20 -3 11 -1 20 5 20 5 0 6 5 3 10 -3
6 -1 10 6 10 8 0 7 5 -2 17 -10 11 -10 14 -1 9 7 -4 12 -2 12 4 0 6 5 8 13 4
8 -5 8 -2 -2 9 -12 15 -11 17 3 17 10 0 14 5 11 10 -3 6 -2 10 3 10 5 0 7 19
5 43 -3 23 -5 52 -6 63 -1 15 -6 20 -16 16 -10 -4 -13 -1 -8 11 6 15 3 16 -13
7 -11 -6 -20 -7 -19 -3 1 4 1 16 0 27 -1 16 -3 17 -18 5 -10 -8 -14 -9 -10 -2
4 6 2 15 -4 18 -5 4 -8 13 -5 21 3 8 -1 14 -9 14 -8 0 -14 3 -14 8 3 19 -2 33
-11 27 -5 -3 -10 3 -10 15 0 12 -4 18 -10 15 -5 -3 -10 1 -10 9 0 9 -6 16 -12
16 -9 0 -8 4 2 10 13 9 13 10 0 11 -8 1 -18 1 -22 0 -4 0 -5 5 -2 13 3 7 -2
21 -11 30 -10 9 -12 16 -5 16 7 0 5 7 -4 16 -9 8 -13 20 -10 26 4 6 2 8 -4 4
-6 -3 -13 -2 -17 4 -4 6 -10 8 -15 5 -5 -3 -11 4 -15 15 -3 11 -12 20 -18 20
-7 0 -6 4 3 10 11 7 11 10 2 10 -7 0 -11 4 -8 9 3 5 -3 11 -14 14 -13 3 -18 1
-13 -6 4 -7 -1 -6 -10 2 -14 11 -18 11 -23 -4 -5 -11 -9 -13 -14 -5 -4 6 -17
12 -28 13 -12 1 -22 6 -22 11 0 6 -5 5 -12 -2 -15 -15 -32 -16 -23 -2 4 6 -8
10 -30 10 -26 0 -34 3 -29 13 6 9 4 9 -8 -1 -13 -10 -17 -10 -22 5 -6 15 -8
15 -16 3 -6 -8 -10 -10 -10 -4 0 17 -43 25 -53 11 -6 -8 -7 -7 -4 5 8 23 -1
28 -30 17 -18 -7 -22 -6 -17 4 5 8 2 8 -9 -2 -14 -11 -17 -11 -17 0 0 12 -2
12 -9 0 -6 -9 -10 -10 -16 -2 -4 7 -12 8 -18 3 -7 -4 -18 -7 -24 -6 -7 1 -18
2 -24 3 -5 0 -7 7 -3 14 6 9 4 9 -8 -1 -12 -10 -18 -10 -23 -1 -5 7 -10 8 -14
1 -4 -7 -19 -6 -44 3 -33 11 -38 11 -33 -1 7 -18 1 -18 -18 2 -9 8 -16 12 -16
7z"/>
</g>
</svg>
